<mxfile host="app.diagrams.net" modified="2021-03-06T03:30:55.189Z" agent="5.0 (Windows NT 10.0; Win64; x64) AppleWebKit/537.36 (KHTML, like Gecko) Chrome/90.0.4428.0 Safari/537.36 Edg/90.0.817.0" etag="sEHXD8uHGMZFBS7X6U-L" version="14.4.4" type="github">
  <diagram id="C5RBs43oDa-KdzZeNtuy" name="Page-1">
    <mxGraphModel dx="1422" dy="794" grid="1" gridSize="10" guides="1" tooltips="1" connect="1" arrows="1" fold="1" page="1" pageScale="1" pageWidth="827" pageHeight="1169" math="0" shadow="0">
      <root>
        <mxCell id="WIyWlLk6GJQsqaUBKTNV-0" />
        <mxCell id="WIyWlLk6GJQsqaUBKTNV-1" parent="WIyWlLk6GJQsqaUBKTNV-0" />
        <mxCell id="pswQ1XKpGyPddZEA789m-20" style="edgeStyle=orthogonalEdgeStyle;rounded=0;orthogonalLoop=1;jettySize=auto;html=1;exitX=1;exitY=0.5;exitDx=0;exitDy=0;entryX=0;entryY=0.5;entryDx=0;entryDy=0;" edge="1" parent="WIyWlLk6GJQsqaUBKTNV-1" source="pswQ1XKpGyPddZEA789m-1" target="pswQ1XKpGyPddZEA789m-9">
          <mxGeometry relative="1" as="geometry" />
        </mxCell>
        <mxCell id="pswQ1XKpGyPddZEA789m-1" value="&amp;lt;&amp;lt;发送微信模板消息Job&amp;gt;&amp;gt;&lt;br&gt;&lt;b&gt;SendTempMsgJob&lt;/b&gt;&lt;br&gt;" style="swimlane;fontStyle=0;align=center;verticalAlign=top;childLayout=stackLayout;horizontal=1;startSize=42;horizontalStack=0;resizeParent=1;resizeParentMax=0;resizeLast=0;collapsible=0;marginBottom=0;html=1;" vertex="1" parent="WIyWlLk6GJQsqaUBKTNV-1">
          <mxGeometry x="50" y="118" width="150" height="82" as="geometry" />
        </mxCell>
        <mxCell id="pswQ1XKpGyPddZEA789m-7" value="方法" style="text;html=1;strokeColor=none;fillColor=none;align=center;verticalAlign=middle;spacingLeft=4;spacingRight=4;overflow=hidden;rotatable=0;points=[[0,0.5],[1,0.5]];portConstraint=eastwest;" vertex="1" parent="pswQ1XKpGyPddZEA789m-1">
          <mxGeometry y="42" width="150" height="20" as="geometry" />
        </mxCell>
        <mxCell id="pswQ1XKpGyPddZEA789m-8" value="+ Execute" style="text;html=1;strokeColor=none;fillColor=none;align=left;verticalAlign=middle;spacingLeft=4;spacingRight=4;overflow=hidden;rotatable=0;points=[[0,0.5],[1,0.5]];portConstraint=eastwest;" vertex="1" parent="pswQ1XKpGyPddZEA789m-1">
          <mxGeometry y="62" width="150" height="20" as="geometry" />
        </mxCell>
        <mxCell id="pswQ1XKpGyPddZEA789m-9" value="&amp;lt;&amp;lt;微信模板消息业务处理&amp;gt;&amp;gt;&lt;br&gt;&lt;b&gt;TemplateMessageLogic&lt;/b&gt;" style="swimlane;fontStyle=0;align=center;verticalAlign=top;childLayout=stackLayout;horizontal=1;startSize=42;horizontalStack=0;resizeParent=1;resizeParentMax=0;resizeLast=0;collapsible=0;marginBottom=0;html=1;" vertex="1" parent="WIyWlLk6GJQsqaUBKTNV-1">
          <mxGeometry x="370" y="118" width="170" height="82" as="geometry" />
        </mxCell>
        <mxCell id="pswQ1XKpGyPddZEA789m-15" value="方法" style="text;html=1;strokeColor=none;fillColor=none;align=center;verticalAlign=middle;spacingLeft=4;spacingRight=4;overflow=hidden;rotatable=0;points=[[0,0.5],[1,0.5]];portConstraint=eastwest;" vertex="1" parent="pswQ1XKpGyPddZEA789m-9">
          <mxGeometry y="42" width="170" height="20" as="geometry" />
        </mxCell>
        <mxCell id="pswQ1XKpGyPddZEA789m-16" value="+ SendMemberLevelup" style="text;html=1;strokeColor=none;fillColor=none;align=left;verticalAlign=middle;spacingLeft=4;spacingRight=4;overflow=hidden;rotatable=0;points=[[0,0.5],[1,0.5]];portConstraint=eastwest;" vertex="1" parent="pswQ1XKpGyPddZEA789m-9">
          <mxGeometry y="62" width="170" height="20" as="geometry" />
        </mxCell>
        <mxCell id="pswQ1XKpGyPddZEA789m-22" value="发送会员升级微信模板消息" style="text;html=1;align=center;verticalAlign=middle;resizable=0;points=[];autosize=1;" vertex="1" parent="WIyWlLk6GJQsqaUBKTNV-1">
          <mxGeometry x="200" y="140" width="160" height="20" as="geometry" />
        </mxCell>
      </root>
    </mxGraphModel>
  </diagram>
</mxfile>
